<svg version="1.1" id="svg3542" xmlns="http://www.w3.org/2000/svg" x="0" y="0" width="300" height="57.24" xml:space="preserve"><style>.st12{fill:#a38b41}.st14{fill:#a18837}.st15{fill:#b29b57}</style><g id="g5082"><g id="g2622" transform="matrix(1.25 0 0 -1.25 -293.001 78.696)"><g id="g2624"><g id="g2630"><g id="g2632"><path id="path2640" d="M236.61 44.21c0-4.04.6-7.82 2.66-10.92v2.67c0 3.35 2.67 5.76 5.42 7.22-2.75-.86-5.76-.26-8.08 1.03z" fill="#c5b278"/></g></g></g></g><g id="g2642" transform="matrix(1.25 0 0 -1.25 -293.001 78.696)"><g id="g2644"><g id="g2650"><g id="g2652"><path id="path2660" d="M239.26 48.71c-.97-.78-1.93-1.56-3.15-1.2.76-.57 1.8-.76 2.94-.66 1.04-.67 2.27 1.14 3.6 1.14 1.9.28 4.36.57 5.69-1.14l-.67 1.32c-1.8.09-3.32.76-4.83 1.61-.35.16-.68.22-.99.22-.98.01-1.79-.64-2.59-1.29m.63-.92l-.84-.76h-.86c-.18.48 1.33 1.43 1.7.76" fill="#baa566"/></g></g></g></g><g id="g2664" transform="matrix(1.25 0 0 -1.25 -293.001 78.696)"><g id="g2670"><g id="g2672"><path id="path2680" d="M234.4 54.06c.92-.23 1.85-.45 2.81-.56 1.89.86 2.4 2.41 1.63 4.48-1.07 1.65-2.72 2.6-4.44 3.04v-6.96z" fill="#b09b58"/></g></g></g><g id="g2682" transform="matrix(1.25 0 0 -1.25 -293.001 78.696)"><g id="g2684"><g id="g2690"><g id="g2692"><path id="path2700" d="M243.73 37.93c-3.11-6.37 1.26-15.16-3.18-20.66h6.96c.31.29.61.61.89.98 5.16 6.71-4.9 10.66-4.73 17.11.26 2.58 1.65 4.52 3.44 6.62l-.17.17c-1.62-1.51-2.27-2.58-3.21-4.22" fill="#cebb83"/></g></g></g></g><g id="g2704" transform="matrix(1.25 0 0 -1.25 -293.001 78.696)"><g id="g2710"><g id="g2712"><path id="path2720" d="M257.24 62.96c6.85-5.27 11.26-13.53 11.28-22.84-.02-9.31-4.44-17.57-11.28-22.84h22.85v45.68h-22.85z" fill="#a8914b"/></g></g></g><g id="g2722" transform="matrix(1.25 0 0 -1.25 -293.001 78.696)"><g id="g2724"><g id="g2730"><g id="g2732"><path id="path2740" d="M234.4 17.28h3.92l.96.81c5.34 7.22-1.03 12.29-4.88 17.98V17.28z" fill="#d3bf8a"/></g></g></g></g><g id="g2752" transform="matrix(1.25 0 0 -1.25 -293.001 78.696)"><path id="path2760" d="M234.4 62.96v-.74c1.09-.17 2.14-.47 3.07-.9 2.15-1.29 3.87-3.44 3.7-6.02l4.9.43c.64 1.61.9 4.09.32 5.35-.38.81-.71 1.4-1.15 1.88H234.4z" fill="#af9856"/></g><g id="g2762" transform="matrix(1.25 0 0 -1.25 -293.001 78.696)"><g id="g2764"><g id="g2770"><g id="g2772"><radialGradient id="path2780_1_" cx="190.1" cy="-271.11" r="1.714" gradientTransform="matrix(34.4579 0 0 -34.4579 -6314.23 -9321.385)" gradientUnits="userSpaceOnUse"><stop offset="0" stop-color="#b2b4b6"/><stop offset="1" stop-color="#29292a"/></radialGradient><path id="path2780" d="M247.41 40.17c.04.03.08.06.13.08a.174.174 0 0 1-.13-.08" fill="url(#path2780_1_)"/></g></g></g></g><g id="g2782" transform="matrix(1.25 0 0 -1.25 -293.001 78.696)"><g id="g2784"><g id="g2790"><g id="g2792"><radialGradient id="path2800_1_" cx="190.1" cy="-271.11" r="1.714" gradientTransform="matrix(34.4583 0 0 -34.4583 -6314.298 -9321.486)" gradientUnits="userSpaceOnUse"><stop offset="0" stop-color="#b2b4b6"/><stop offset="1" stop-color="#29292a"/></radialGradient><path id="path2800" d="M247.4 62.96c1-1.37 1.03-3.19 1.17-4.74 1.89 1.46 4.3 2.32 6.79 1.64-1.71 1.3-2.83 2.32-4.88 3.1h-3.08z" fill="url(#path2800_1_)"/></g></g></g></g><g id="g2802" transform="matrix(1.25 0 0 -1.25 -293.001 78.696)"><g id="g2804"><g id="g2810"><g id="g2812"><path id="path2820" d="M251.66 38.88c-1.46-.43-2.84.51-4.3.77 0 .2-.05.4.05.52-2.08-1.31-1.52-3.83-1.94-5.85.52-2.24 2.92-3.1 4.56-4.38 2.41-.43 4.64.69 6.79 1.46.34-.34.86-.69.6-1.2-1.63-2.32-4.13-3.35-6.97-3.09 1.7-3.25.55-6.99-1.26-9.83h1.71c5.09 2.35 9.95 5.87 10.3 12.67.52 4.3.17 8.77-2.92 11.78-.2.02-.42.01-.64 0-.53-.03-1.06-.06-1.43.43-1.37-1.3-3.18-1.82-4.55-3.28m.86 0c.89.96 3.42 2.85 4.28 2.13.22-.18.33-.8.27-1.38l-.43-1.03-.48 1.32c-1.2-.26-2.33-.7-2.93-1.9-.09-.34.07-1.05-.28-1.31-.78.18-.35 1.48-.43 2.17m4.12-4.81c.94-3.35-3.01-2.75-4.73-3.69-.69.52-.34 1.37-.43 2.06l.43.43c.43-1.28 1.23-.8 2.1-.32.53.29 1.08.58 1.6.49.6.25.35 1.2 1.03 1.03" fill="#c1ab6f"/></g></g></g></g><g id="g2822" transform="matrix(1.25 0 0 -1.25 -293.001 78.696)"><g id="g2824"><g id="g2830"><g id="g2832"><path id="path2840" d="M253.21 58.67c-2.25-.13-4.41-1.78-5.25-3.11 1.55-.86 3.27-2.15 4.73-3.52-.09-.52.26-1.2-.43-1.46-.77.6-1.46 2.15-2.41 1.64.78-1.64 2.84-1.81 4.47-2.24.6-.6.43-1.63 1.72-1.2.6-.17.86-.86 1.03-1.46-.69-1.26-2.18-1.15-3.55-1.03-.69.06-1.35.11-1.86 0 1.29-.52 2.75-.69 3.95-1.46 1.2-.77 1.54 1.03 2.06 1.63 2.06-.51.94-2.66 1.8-3.87 4.38-4.56 3.52-12.55 1.29-17.79 6.02 5.5 5.54 17.75 4.13 22.69-1.38 4.82-5.58 11.21-11.26 11.21-.13-.02-.28-.02-.42-.03" fill="#ad9654"/></g></g></g></g><path id="path4004" d="M28.54 0c4.42 3.4 8.03 7.81 10.49 12.87C44.7 15.51 50.71 19 57.1 23.46V0H28.54z" fill="#ae9754"/><path id="path4002" class="st12" d="M16.24 0c1.25 1.72 1.29 3.98 1.46 5.92 2.36-1.83 5.37-2.9 8.49-2.04-2.14-1.62-3.54-2.9-6.1-3.87h-3.85z"/><path id="path4000" class="st12" d="M0 0v.93c1.37.21 2.68.58 3.84 1.12 1.79 1.07 3.33 2.62 4.11 4.49 2.35-.25 4.78-.31 7.32-.17.22-1.51.17-3.06-.28-4.02-.47-1.02-.9-1.75-1.45-2.35H0z"/><path id="path3998" class="st12" d="M0 8.16c1.85-.57 3.77-1.02 5.75-1.33-.06-.2-.12-.39-.2-.6C4.21 4.16 2.15 2.98 0 2.42v5.74z"/><path id="path2860" d="M23.51 5.36c-1.44.08-2.85.66-4.02 1.43 4.38.62 9.03 1.82 13.96 3.71-2.47-2.96-5.68-5.16-9.4-5.16-.18 0-.36.01-.54.02" fill="#a38b44"/><g id="g2862" transform="matrix(1.25 0 0 -1.25 53.044 24.059)"><path id="path2864" class="st14" d="M27.56-11h-3.15V.34l-4.68-8.4H17.9L13.25.37V-11H10.1V6.17h3.17l5.57-9.95 5.57 9.95h3.15V-11z"/></g><g transform="matrix(1.25 0 0 -1.25 -293.001 78.696)" id="g2866"><g id="g2868"><g id="g2874" transform="translate(287.805 43.981)"><path id="path2876" class="st14" d="M35.39-10.81c-1.98-.5-3.85-.75-5.62-.75-2.91 0-5.26.86-7.07 2.58-1.74 1.67-2.6 3.76-2.6 6.27 0 2.61.9 4.74 2.71 6.39 1.8 1.65 4.11 2.48 6.91 2.48 1.67 0 3.28-.19 4.85-.57l-.44-2.73c-1.65.26-3 .39-4.05.39-2.15 0-3.8-.52-4.95-1.55C23.98.67 23.4-.8 23.4-2.71c0-1.75.55-3.18 1.65-4.28 1.1-1.1 2.59-1.65 4.46-1.65.91 0 1.85.07 2.81.21v5.75h3.07v-8.13z"/></g></g></g><g id="g2878" transform="matrix(1.25 0 0 -1.25 82.496 24.059)"><path id="path2880" class="st14" d="M44.38-11h-3.15V.34l-4.68-8.4h-1.84L30.06.37V-11h-3.15V6.17h3.17l5.57-9.95 5.57 9.95h3.15V-11z"/></g><g transform="matrix(1.25 0 0 -1.25 -293.001 78.696)" id="g2882"><g id="g2884"><g id="g2890" transform="translate(316.282 43.71)"><path id="path2892" class="st14" d="M55.72-11h-4.05l-4.72 6.5h-4.2V-11h-3.3V6.17h8.95c1.61 0 2.96-.53 4.02-1.6 1.01-1.03 1.52-2.28 1.52-3.76 0-1.08-.3-2.06-.9-2.94-.6-.88-1.42-1.51-2.45-1.91L55.72-11zM50.56.81c0 .79-.27 1.43-.8 1.93s-1.18.75-1.96.75h-5.05v-5.41h5.05c.79 0 1.45.25 1.97.76.53.5.79 1.16.79 1.97"/></g></g></g><g id="g2894" transform="matrix(1.25 0 0 -1.25 113.329 24.059)"><path id="path2896" class="st14" d="M61.99-11H49.67V6.17h12.32V3.33h-9.02V-.72h8.48v-2.83h-8.48v-4.62h9.02V-11z"/></g><g id="g2906" transform="matrix(1.25 0 0 -1.25 125.74 20.637)"><path id="path2908" class="st14" d="M69.08-9.05c0-1.51-.65-2.72-1.96-3.62-1.31-.9-3.01-1.35-5.1-1.35-2.63 0-5 .47-7.11 1.42l.72 2.55c2.28-.79 4.4-1.19 6.34-1.19 2.56 0 3.84.7 3.84 2.09 0 .57-.3 1.03-.9 1.39-.46.29-1.62.78-3.48 1.47-2.22.82-3.71 1.57-4.49 2.24-.91.79-1.36 1.86-1.36 3.22 0 3.01 2.28 4.51 6.86 4.51 2.22 0 4.28-.27 6.19-.82L68.14.21c-1.93.43-3.81.64-5.65.64-1.34 0-2.28-.12-2.82-.35-.54-.23-.81-.65-.81-1.25s.33-1.11 1.01-1.52c.48-.28 1.74-.82 3.79-1.62 2.17-.84 3.57-1.53 4.2-2.06.81-.71 1.22-1.74 1.22-3.1"/></g><g id="g2910" transform="matrix(1.25 0 0 -1.25 139.87 17.817)"><path id="path2912" class="st14" d="M77.15-7.43c0-2.46-.82-4.55-2.48-6.27-1.65-1.72-3.69-2.58-6.11-2.58-2.43 0-4.46.86-6.11 2.58-1.65 1.72-2.47 3.81-2.47 6.27s.82 4.55 2.47 6.28c1.65 1.73 3.69 2.59 6.11 2.59 2.42 0 4.46-.86 6.11-2.59 1.66-1.73 2.48-3.83 2.48-6.28m-3.27 0c0 1.74-.48 3.16-1.44 4.28s-2.25 1.68-3.87 1.68-2.9-.56-3.85-1.68c-.95-1.12-1.43-2.54-1.43-4.28s.47-3.15 1.42-4.23c.96-1.13 2.25-1.7 3.87-1.7 1.61 0 2.91.57 3.89 1.7.93 1.08 1.41 2.49 1.41 4.23"/></g><g id="g2914" transform="matrix(1.25 0 0 -1.25 154.264 24.059)"><path id="path2916" class="st14" d="M85.37-11h-4.05L76.6-4.5h-4.2V-11h-3.3V6.17h8.95c1.62 0 2.96-.53 4.02-1.6 1.01-1.03 1.52-2.28 1.52-3.76 0-1.08-.3-2.06-.9-2.94-.6-.88-1.42-1.51-2.45-1.91L85.37-11zM80.22.81c0 .79-.27 1.43-.8 1.93s-1.19.75-1.96.75h-5.05v-5.41h5.05c.79 0 1.45.25 1.97.76.53.5.79 1.16.79 1.97"/></g><path id="path2920" class="st14" d="M280.1 19.92h-7.12v17.89h-4.09V19.92h-7.15v-3.58h18.37v3.58z"/><g transform="matrix(1.25 0 0 -1.25 -293.001 78.696)" id="g2922"><g id="g2924"><g id="g2930" transform="translate(376.024 46.448)"><path id="path2932" class="st14" d="M98.38-9.05c0-1.51-.65-2.72-1.96-3.62-1.3-.9-3.01-1.35-5.1-1.35-2.63 0-5 .47-7.11 1.42l.72 2.55c2.29-.79 4.4-1.19 6.34-1.19 2.56 0 3.84.7 3.84 2.09 0 .57-.3 1.03-.9 1.39-.47.29-1.63.78-3.48 1.47-2.22.82-3.71 1.57-4.49 2.24-.91.79-1.37 1.86-1.37 3.22 0 3.01 2.28 4.51 6.86 4.51 2.22 0 4.28-.27 6.19-.82L97.43.21c-1.92.43-3.81.64-5.64.64-1.34 0-2.28-.12-2.82-.35-.54-.23-.81-.65-.81-1.25s.34-1.11 1.01-1.52c.48-.28 1.74-.82 3.79-1.62 2.16-.84 3.57-1.53 4.2-2.06.8-.71 1.22-1.74 1.22-3.1"/></g></g></g><path id="path2934" class="st15" d="M67.94 57.04h-2.26V45.27h2.26v11.77z"/><path id="path2938" class="st15" d="M81.52 57.04h-2.21l-5.89-8.2v8.2h-2.21V45.27h2.21l5.87 8.2v-8.2h2.23v11.77z"/><g id="g2940" transform="matrix(1.25 0 0 -1.25 56.512 29.556)"><path id="path2942" class="st15" d="M29.54-14.14h-3.12v-7.85h-1.8v7.85h-3.14v1.57h8.06v-1.57z"/></g><g id="g2944" transform="matrix(1.25 0 0 -1.25 62.512 35.28)"><path id="path2946" class="st15" d="M32.96-17.41H26.2v9.42h6.76v-1.55h-4.95v-2.22h4.65v-1.55h-4.65v-2.53h4.95v-1.57z"/></g><g transform="matrix(1.25 0 0 -1.25 -293.001 78.696)" id="g2948"><g id="g2950"><g id="g2956" transform="translate(290.946 34.733)"><path id="path2958" class="st15" d="M37.63-17.41h-2.22l-2.59 3.56h-2.31v-3.56H28.7v9.42h4.91c.89 0 1.62-.29 2.21-.88.55-.57.83-1.25.83-2.07 0-.59-.16-1.13-.49-1.61-.33-.48-.78-.83-1.34-1.05l2.81-3.81zm-2.83 6.48c0 .43-.15.79-.44 1.06-.29.27-.65.41-1.07.41h-2.77v-2.97h2.77c.43 0 .8.14 1.08.42.29.27.43.63.43 1.08"/></g></g></g><g id="g2960" transform="matrix(1.25 0 0 -1.25 77.82 35.28)"><path id="path2962" class="st15" d="M41.71-17.41h-1.77l-4.71 6.56v-6.56h-1.77v9.42h1.77l4.69-6.56v6.56h1.78v-9.42z"/></g><g id="g2964" transform="matrix(1.25 0 0 -1.25 85.408 35.28)"><path id="path2966" class="st15" d="M46.04-17.41h-1.78l-.81 2.11H39.7l-.81-2.11h-1.78l3.66 9.42h1.61l3.66-9.42zM43-13.92l-1.43 4.07-1.43-4.07H43z"/></g><g id="g2968" transform="matrix(1.25 0 0 -1.25 90.865 29.556)"><path id="path2970" class="st15" d="M49.16-14.14h-3.12v-7.85h-1.79v7.85H41.1v1.57h8.06v-1.57z"/></g><path id="path2972" class="st15" d="M156.46 57.04h-2.26V45.27h2.26v11.77z"/><g transform="matrix(1.25 0 0 -1.25 -293.001 78.696)" id="g2974"><g id="g2976"><g id="g2982" transform="translate(315.696 37.472)"><path id="path2984" class="st15" d="M55.3-15.45c0-1.35-.45-2.49-1.36-3.44-.9-.94-2.02-1.41-3.35-1.41s-2.45.47-3.35 1.41c-.9.94-1.36 2.09-1.36 3.44s.45 2.5 1.36 3.44c.9.95 2.02 1.42 3.35 1.42s2.45-.47 3.35-1.42c.91-.95 1.36-2.1 1.36-3.44m-1.79 0c0 .95-.26 1.73-.79 2.35-.53.61-1.24.92-2.12.92s-1.59-.31-2.11-.92c-.52-.61-.79-1.4-.79-2.35 0-.95.26-1.72.78-2.32.53-.62 1.23-.93 2.12-.93s1.6.31 2.14.93c.51.59.77 1.36.77 2.32"/></g></g></g><g id="g2986" transform="matrix(1.25 0 0 -1.25 109.055 35.28)"><path id="path2988" class="st15" d="M59.55-17.41h-1.77l-4.71 6.56v-6.56H51.3v9.42h1.77l4.69-6.56v6.56h1.78v-9.42z"/></g><g id="g2990" transform="matrix(1.25 0 0 -1.25 116.643 35.28)"><path id="path2992" class="st15" d="M63.88-17.41H62.1l-.8 2.11h-3.76l-.81-2.11h-1.78l3.66 9.42h1.61l3.66-9.42zm-3.04 3.49l-1.43 4.07-1.43-4.07h2.86z"/></g><g id="g2994" transform="matrix(1.25 0 0 -1.25 122.42 35.28)"><path id="path2996" class="st15" d="M67.18-17.41h-6.45v9.42h1.81v-7.86h4.64v-1.56z"/></g><path id="path3988" d="M38.7 44.92A36.162 36.162 0 0 1 28.55 57.1H57.1V17.47c-4.25 10.17-10.02 20.9-18.4 27.45" fill="#c1ab71"/><path id="path3986" d="M0 57.1h4.9l1.2-1.01c1.92-2.59 2.62-4.96 2.55-7.19C5.91 47.94 3.03 46.65 0 45v12.1z" fill="#ac9552"/><path id="path3984" d="M20.92 51.17c-.38 2.11-1.3 4.16-2.44 5.93h2.14c3.91-1.8 7.71-4.16 10.16-7.68-3.01 1.13-6.29 1.76-9.86 1.75" fill="#b6a160"/><path id="path3016" d="M7.67 57.1h8.7c.39-.37.76-.76 1.11-1.22 1.31-1.71 1.83-3.28 1.84-4.75-2.83-.15-5.84-.7-9.04-1.69-.18 2.82-.82 5.46-2.61 7.66" fill="#b59e5b"/><g id="g3138" transform="matrix(1.25 0 0 -1.25 -293.001 78.696)"><g id="g3140"><g id="g3146"><g id="g3148"><linearGradient id="path3156_1_" gradientUnits="userSpaceOnUse" x1="262.505" y1="201.871" x2="264.217" y2="201.871" gradientTransform="matrix(.6906 0 0 -.6906 69.678 190.843)"><stop offset="0" stop-color="#d1d3d4"/><stop offset="1" stop-color="#29292a"/></linearGradient><path id="path3156" d="M250.97 51.96c.32-.34.63-.77.95-1.06-.32.34-.63.76-.95 1.06z" fill="url(#path3156_1_)"/></g></g></g></g><g id="g3438" transform="matrix(1.25 0 0 -1.25 -293.001 78.696)"><g id="g3440"><g id="g3446"><g id="g3448"><linearGradient id="path3456_1_" gradientUnits="userSpaceOnUse" x1="214.704" y1="-121.543" x2="216.419" y2="-121.543" gradientTransform="matrix(2.0659 0 0 -2.0659 -186.323 -189.39)"><stop offset="0" stop-color="#d1d3d4"/><stop offset="1" stop-color="#29292a"/></linearGradient><path id="path3456" d="M257.24 62.96c1-.77 1.94-1.6 2.83-2.49-.87.89-1.8 1.72-2.78 2.49h-.05z" fill="url(#path3456_1_)"/></g></g></g></g><g id="g3538" transform="matrix(1.25 0 0 -1.25 124.157 28.784)"><path id="path3540" class="st15" d="M68.18-13.7h-1v-2.51h-.59v2.51h-1v.51h2.59v-.51zm3.38-2.51h-.55v2l-.82-1.48h-.32l-.85 1.48v-2h-.55v3.02H69l1-1.78 1 1.78h.55v-3.02z"/></g></g><g id="g5207" transform="matrix(1.25 0 0 -1.25 -292.98 78.697)"><g id="g5209"><g id="g5211"><g id="g5213"><radialGradient id="path5215_1_" cx="190.083" cy="-271.11" r="1.714" gradientTransform="matrix(34.4579 0 0 -34.4579 -6313.656 -9321.375)" gradientUnits="userSpaceOnUse"><stop offset="0" stop-color="#b2b4b6"/><stop offset="1" stop-color="#29292a"/></radialGradient><path id="path5215" d="M247.42 40.17c.04.03.08.06.13.08a.196.196 0 0 1-.13-.08" fill="url(#path5215_1_)"/></g></g></g></g><g id="g3018" transform="matrix(1.25 0 0 -1.25 -292.98 78.697)"><g id="g3020"><g id="g3026"><g id="g3028"><linearGradient id="path3036_1_" gradientUnits="userSpaceOnUse" x1="434.278" y1="1402.051" x2="435.992" y2="1402.051" gradientTransform="matrix(.2009 0 0 -.2009 159.905 321.651)"><stop offset="0" stop-color="#d1d3d4"/><stop offset="1" stop-color="#29292a"/></linearGradient><path id="path3036" d="M247.14 39.98v-.1c.07-.01.15-.03.22-.04-.01.14-.01.26.05.34-.09-.07-.18-.14-.27-.2" fill="url(#path3036_1_)"/></g></g></g></g><g id="g3038" transform="matrix(1.25 0 0 -1.25 -292.98 78.697)"><g id="g3040"><g id="g3046"><g id="g3048"><path id="path3056" d="M255.4 33.26c-.52.1-1.07-.2-1.6-.49-.62-.34-1.2-.69-1.64-.4.45-.64 1.13-.23 1.86.17.53.29 1.08.58 1.6.49.54.23.39 1.02.86 1.05-.02.07-.03.14-.05.21-.06.01-.11.02-.15.02-.5 0-.33-.82-.88-1.05" fill="#b8a776"/></g></g></g></g><g id="g3058" transform="matrix(1.25 0 0 -1.25 -292.98 78.697)"><g id="g3060"><g id="g3066"><g id="g3068"><linearGradient id="path3076_1_" gradientUnits="userSpaceOnUse" x1="725.561" y1="3388.873" x2="727.275" y2="3388.873" gradientTransform="matrix(.0921 0 0 -.0921 180.605 352.286)"><stop offset="0" stop-color="#d1d3d4"/><stop offset="1" stop-color="#29292a"/></linearGradient><path id="path3076" d="M247.42 40.17c.04.03.08.06.13.08a.196.196 0 0 1-.13-.08" fill="url(#path3076_1_)"/></g></g></g></g><g id="g3078" transform="matrix(1.25 0 0 -1.25 -292.98 78.697)"><g id="g3080"><g id="g3086"><g id="g3088"><path id="path3096" d="M251.27 32.66c.09-.69-.26-1.55.43-2.06-.38.52-.13 1.24-.21 1.83l.34.34c-.05.09-.09.2-.13.32l-.43-.43z" fill="#d4c48d"/></g></g></g></g><g id="g3098" transform="matrix(1.25 0 0 -1.25 -292.98 78.697)"><g id="g3100"><g id="g3106"><g id="g3108"><path id="path3116" d="M252.31 39.11c.08-.63-.28-1.83.27-2.1-.2.4.02 1.37-.04 1.88.86.93 3.27 2.73 4.19 2.19-.14.23-.36.33-.64.33-1.1-.01-3.03-1.49-3.78-2.3" fill="#d4c88e"/></g></g></g></g><g id="g3118" transform="matrix(1.25 0 0 -1.25 -292.98 78.697)"><g id="g3120"><g id="g3126"><g id="g3128"><path id="path3136" d="M256.03 39.89l.35-1.12.09.21-.29.94c-.05 0-.1-.01-.15-.03" fill="#dbd2b3"/></g></g></g></g><g id="g5251" transform="matrix(1.25 0 0 -1.25 -292.98 78.697)"><g id="g5253"><g id="g5255"><g id="g5257"><linearGradient id="path5259_1_" gradientUnits="userSpaceOnUse" x1="262.505" y1="201.872" x2="264.218" y2="201.872" gradientTransform="matrix(.6906 0 0 -.6906 69.69 190.844)"><stop offset="0" stop-color="#d1d3d4"/><stop offset="1" stop-color="#29292a"/></linearGradient><path id="path5259" d="M250.98 51.96c.32-.34.63-.77.95-1.06-.32.34-.62.76-.95 1.06z" fill="url(#path5259_1_)"/></g></g></g></g><g id="g3158" transform="matrix(1.25 0 0 -1.25 -292.98 78.697)"><g id="g3160"><g id="g3166"><g id="g3168"><path id="path3176" d="M254.93 48.99c.2-.29.47-.44 1.13-.22.13-.04.24-.1.34-.18-.15.19-.33.34-.56.4-.45-.14-.72-.12-.91 0" fill="#d1bc8d"/></g></g></g></g><g id="g3178" transform="matrix(1.25 0 0 -1.25 -292.98 78.697)"><g id="g3180"><g id="g3186"><g id="g3188"><linearGradient id="path3196_1_" gradientUnits="userSpaceOnUse" x1="203.906" y1="-179.677" x2="205.62" y2="-179.677" gradientTransform="matrix(3.2841 0 0 -3.2841 -421.683 -536.154)"><stop offset="0" stop-color="#d1d3d4"/><stop offset="1" stop-color="#29292a"/></linearGradient><path id="path3196" d="M247.97 55.56c1.47-.81 3.09-2.02 4.5-3.32v.02c-1.38 1.3-2.98 2.51-4.46 3.37a.161.161 0 0 0-.04-.07" fill="url(#path3196_1_)"/></g></g></g></g><g id="g3198" transform="matrix(1.25 0 0 -1.25 -292.98 78.697)"><g id="g3200"><g id="g3206"><g id="g3208"><path id="path3216" d="M260.17 55.65c2.19-2.27 3.77-5.34 4.51-7.95 1.37-4.79 1.86-16.46-3.6-22.18-.1-.25-.19-.5-.29-.73 6.02 5.5 5.54 17.75 4.13 22.69-.78 2.7-2.44 5.89-4.75 8.17z" fill="#ac9a60"/></g></g></g></g><g id="g3218" transform="matrix(1.25 0 0 -1.25 -292.98 78.697)"><g id="g3220"><g id="g3226"><g id="g3228"><path id="path3236" d="M246.5 32.52c.99-1.03 2.44-1.71 3.54-2.58 2.41-.43 4.64.69 6.79 1.46.06-.06.13-.13.2-.19-.13.15-.29.28-.43.42-2.15-.77-4.38-1.89-6.79-1.46-1.02.8-2.34 1.44-3.31 2.35z" fill="#b9a56a"/></g></g></g></g><g id="g3238" transform="matrix(1.25 0 0 -1.25 -292.98 78.697)"><g id="g3240"><g id="g3246"><g id="g3248"><path id="path3256" d="M250.28 51.59c.94-1.06 2.62-1.25 4.01-1.61-.05.08-.11.15-.17.21-.56.15-1.16.26-1.75.42-.03-.02-.06-.03-.09-.04-.04.03-.07.06-.11.09-.72.21-1.38.47-1.89.93z" fill="#cdbd8f"/></g></g></g></g><g id="g3258" transform="matrix(1.25 0 0 -1.25 -292.98 78.697)"><g id="g3260"><g id="g3266"><g id="g3268"><path id="path3276" d="M243.64 42.92c-2.43-1.49-4.57-3.73-4.57-6.74v-2.53c.07-.12.15-.24.22-.36v2.67c0 3.35 2.67 5.76 5.42 7.22-.36-.11-.71-.19-1.07-.26" fill="#dbc68f"/></g></g></g></g><g id="g3278" transform="matrix(1.25 0 0 -1.25 -292.98 78.697)"><g id="g3280"><g id="g3286"><g id="g3288"><path id="path3296" d="M247.55 48.18l.51-1.02c.1-.1.19-.2.28-.31l-.67 1.32c-.04 0-.08.01-.12.01z" fill="#a29867"/></g></g></g></g><g id="g3298" transform="matrix(1.25 0 0 -1.25 -292.98 78.697)"><g id="g3300"><g id="g3306"><g id="g3308"><path id="path3316" d="M246.41 41.62c-1.55-1.89-2.72-3.7-2.96-6.04-.17-6.45 9.89-10.4 4.73-17.11a9.35 9.35 0 0 0-.89-.98h-6.57c-.06-.08-.11-.15-.17-.22h6.96c.31.29.61.61.89.98 5.16 6.71-4.9 10.66-4.73 17.11.26 2.58 1.65 4.52 3.44 6.62l-.17.17c-.19-.18-.37-.36-.53-.53" fill="#ae9d5a"/></g></g></g></g><g id="g3318" transform="matrix(1.25 0 0 -1.25 -292.98 78.697)"><g id="g3320"><g id="g3326"><g id="g3328"><path id="path3336" d="M245.21 62.96c.35-.44.64-.96.96-1.65.58-1.27.32-3.74-.32-5.35l-4.67-.41v-.24l4.9.43c.64 1.61.9 4.09.32 5.35-.38.81-.71 1.4-1.15 1.88h-.04z" fill="#b7a869"/></g></g></g></g><path id="path3356" d="M.04 33.74c4.83 6.95 12.37 13.21 5.82 22.07l-1.2 1.01H.04v.28h4.9l1.2-1.01c6.68-9.03-1.29-15.36-6.1-22.48v.13z" fill="#a4883e"/><g id="g3358" transform="matrix(1.25 0 0 -1.25 -292.98 78.697)"><g id="g3360"><g id="g3366"><g id="g3368"><path id="path3376" d="M258.28 41.72c2.89-3 3.21-7.36 2.71-11.55-.35-6.8-5.21-10.32-10.31-12.67h-1.34c-.05-.08-.09-.15-.14-.22h1.71c5.09 2.35 9.95 5.87 10.3 12.67.52 4.3.17 8.77-2.92 11.78h-.01z" fill="#b0a178"/></g></g></g></g><g id="g3378" transform="matrix(1.25 0 0 -1.25 -292.98 78.697)"><g id="g3380"><g id="g3386"><g id="g3388"><path id="path3396" d="M279.87 62.96V17.5h-22.34c-.1-.08-.19-.15-.29-.22h22.85v45.68h-.22z" fill="#9b883c"/></g></g></g></g><g id="g3398" transform="matrix(1.25 0 0 -1.25 -292.98 78.697)"><g id="g3400"><g id="g3406"><g id="g3408"><path id="path3416" d="M238.63 58.2c.77-2.06.26-3.62-1.63-4.48-.88.1-1.74.3-2.58.51v-.17c.92-.23 1.85-.45 2.81-.56 1.89.86 2.4 2.41 1.63 4.48-.3.46-.64.85-1.01 1.2.28-.3.54-.62.78-.98" fill="#a29352"/></g></g></g></g><g id="g3418" transform="matrix(1.25 0 0 -1.25 -292.98 78.697)"><g id="g3420"><g id="g3426"><g id="g3428"><path id="path3436" d="M242.41 48.23c-1.28 0-2.47-1.66-3.48-1.19h-.71c-.01.01-.01.03-.01.04-.67.01-1.29.12-1.82.37-.09.02-.18.03-.28.06.76-.57 1.8-.76 2.94-.66 1.04-.67 2.27 1.14 3.6 1.14 1.72.26 3.91.51 5.29-.72-.83.92-2.02 1.18-3.25 1.18-.77-.01-1.57-.11-2.28-.22" fill="#c1b576"/></g></g></g></g><g id="g5331" transform="matrix(1.25 0 0 -1.25 -292.98 78.697)"><g id="g5333"><g id="g5335"><g id="g5337"><linearGradient id="path5339_1_" gradientUnits="userSpaceOnUse" x1="214.693" y1="-121.543" x2="216.408" y2="-121.543" gradientTransform="matrix(2.0659 0 0 -2.0659 -186.289 -189.39)"><stop offset="0" stop-color="#d1d3d4"/><stop offset="1" stop-color="#29292a"/></linearGradient><path id="path5339" d="M257.25 62.96c1-.77 1.94-1.6 2.83-2.49-.87.89-1.8 1.72-2.78 2.49h-.05z" fill="url(#path5339_1_)"/></g></g></g></g><g id="g3458" transform="matrix(1.25 0 0 -1.25 -292.98 78.697)"><g id="g3460"><g id="g3466"><g id="g3468"><path id="path3476" d="M255.4 45.04c-1.05.67-2.3.89-3.46 1.28-.09-.01-.19-.02-.27-.04 1.29-.52 2.75-.69 3.95-1.46 1.2-.77 1.54 1.03 2.06 1.63.32-.08.56-.2.74-.35-.2.25-.5.46-.97.58-.5-.61-.85-2.42-2.05-1.64" fill="#ab9c6b"/></g></g></g></g><g id="g3478" transform="matrix(1.25 0 0 -1.25 -292.98 78.697)"><g id="g3480"><g id="g3486"><g id="g3488"><path id="path3496" d="M248.54 58.59l.03-.37c1.89 1.46 4.3 2.32 6.79 1.64-.11.08-.22.17-.33.25-.56.15-1.12.21-1.67.21-1.76 0-3.42-.7-4.82-1.73" fill="#c5ae7c"/></g></g></g></g><g id="g3498" transform="matrix(1.25 0 0 -1.25 -292.98 78.697)"><g id="g3500"><g id="g3506"><g id="g3508"><path id="path3516" d="M237.97 47.28h.27c.18.38.92.83 1.37.72l.04.04c-.09.16-.25.23-.44.23-.57 0-1.39-.63-1.24-.99" fill="#d0c395"/></g></g></g></g><g id="g3518" transform="matrix(1.25 0 0 -1.25 -292.98 78.697)"><g id="g3520"><g id="g3526"><g id="g3528"><path id="path3536" d="M234.42 62.21c1.09-.17 2.14-.47 3.07-.9.6-.36 1.17-.79 1.67-1.28-.56.58-1.2 1.09-1.9 1.51-.86.4-1.83.68-2.84.86v-.19z" fill="#d9c9a0"/></g></g></g></g></svg>